<?xml version="1.0" encoding="utf-8" standalone="no"?>
<!DOCTYPE svg PUBLIC "-//W3C//DTD SVG 1.1//EN"
  "http://www.w3.org/Graphics/SVG/1.1/DTD/svg11.dtd">
<svg xmlns:xlink="http://www.w3.org/1999/xlink" width="1382.4pt" height="707.76pt" viewBox="0 0 1382.4 707.76" xmlns="http://www.w3.org/2000/svg" version="1.1">
 <metadata>
  <rdf:RDF xmlns:dc="http://purl.org/dc/elements/1.1/" xmlns:cc="http://creativecommons.org/ns#" xmlns:rdf="http://www.w3.org/1999/02/22-rdf-syntax-ns#">
   <cc:Work>
    <dc:type rdf:resource="http://purl.org/dc/dcmitype/StillImage"/>
    <dc:date>2024-12-08T10:56:52.031219</dc:date>
    <dc:format>image/svg+xml</dc:format>
    <dc:creator>
     <cc:Agent>
      <dc:title>Matplotlib v3.7.1, https://matplotlib.org/</dc:title>
     </cc:Agent>
    </dc:creator>
   </cc:Work>
  </rdf:RDF>
 </metadata>
 <defs>
  <style type="text/css">*{stroke-linejoin: round; stroke-linecap: butt}</style>
 </defs>
 <g id="figure_1">
  <g id="patch_1">
   <path d="M 0 707.76 
L 1382.4 707.76 
L 1382.4 0 
L 0 0 
z
" style="fill: #ffffff"/>
  </g>
  <g id="axes_1">
   <g id="patch_2">
    <path d="M 172.8 629.9064 
L 1244.16 629.9064 
L 1244.16 84.9312 
L 172.8 84.9312 
z
" style="fill: #ffffff"/>
   </g>
   <g id="matplotlib.axis_1">
    <g id="xtick_1">
     <g id="line2d_1">
      <path d="M 172.8 629.9064 
L 172.8 84.9312 
" clip-path="url(#p5f32e2e299)" style="fill: none; stroke: #b0b0b0; stroke-width: 0.8; stroke-linecap: square"/>
     </g>
     <g id="line2d_2">
      <defs>
       <path id="m9c59e07ca4" d="M 0 0 
L 0 3.5 
" style="stroke: #000000; stroke-width: 0.8"/>
      </defs>
      <g>
       <use xlink:href="#m9c59e07ca4" x="172.8" y="629.9064" style="stroke: #000000; stroke-width: 0.8"/>
      </g>
     </g>
     <g id="text_1">
      <!-- 0.0 -->
      <g transform="translate(164.848437 644.504838) scale(0.1 -0.1)">
       <defs>
        <path id="DejaVuSans-30" d="M 2034 4250 
Q 1547 4250 1301 3770 
Q 1056 3291 1056 2328 
Q 1056 1369 1301 889 
Q 1547 409 2034 409 
Q 2525 409 2770 889 
Q 3016 1369 3016 2328 
Q 3016 3291 2770 3770 
Q 2525 4250 2034 4250 
z
M 2034 4750 
Q 2819 4750 3233 4129 
Q 3647 3509 3647 2328 
Q 3647 1150 3233 529 
Q 2819 -91 2034 -91 
Q 1250 -91 836 529 
Q 422 1150 422 2328 
Q 422 3509 836 4129 
Q 1250 4750 2034 4750 
z
" transform="scale(0.015625)"/>
        <path id="DejaVuSans-2e" d="M 684 794 
L 1344 794 
L 1344 0 
L 684 0 
L 684 794 
z
" transform="scale(0.015625)"/>
       </defs>
       <use xlink:href="#DejaVuSans-30"/>
       <use xlink:href="#DejaVuSans-2e" x="63.623047"/>
       <use xlink:href="#DejaVuSans-30" x="95.410156"/>
      </g>
     </g>
    </g>
    <g id="xtick_2">
     <g id="line2d_3">
      <path d="M 376.868571 629.9064 
L 376.868571 84.9312 
" clip-path="url(#p5f32e2e299)" style="fill: none; stroke: #b0b0b0; stroke-width: 0.8; stroke-linecap: square"/>
     </g>
     <g id="line2d_4">
      <g>
       <use xlink:href="#m9c59e07ca4" x="376.868571" y="629.9064" style="stroke: #000000; stroke-width: 0.8"/>
      </g>
     </g>
     <g id="text_2">
      <!-- 0.2 -->
      <g transform="translate(368.917009 644.504838) scale(0.1 -0.1)">
       <defs>
        <path id="DejaVuSans-32" d="M 1228 531 
L 3431 531 
L 3431 0 
L 469 0 
L 469 531 
Q 828 903 1448 1529 
Q 2069 2156 2228 2338 
Q 2531 2678 2651 2914 
Q 2772 3150 2772 3378 
Q 2772 3750 2511 3984 
Q 2250 4219 1831 4219 
Q 1534 4219 1204 4116 
Q 875 4013 500 3803 
L 500 4441 
Q 881 4594 1212 4672 
Q 1544 4750 1819 4750 
Q 2544 4750 2975 4387 
Q 3406 4025 3406 3419 
Q 3406 3131 3298 2873 
Q 3191 2616 2906 2266 
Q 2828 2175 2409 1742 
Q 1991 1309 1228 531 
z
" transform="scale(0.015625)"/>
       </defs>
       <use xlink:href="#DejaVuSans-30"/>
       <use xlink:href="#DejaVuSans-2e" x="63.623047"/>
       <use xlink:href="#DejaVuSans-32" x="95.410156"/>
      </g>
     </g>
    </g>
    <g id="xtick_3">
     <g id="line2d_5">
      <path d="M 580.937143 629.9064 
L 580.937143 84.9312 
" clip-path="url(#p5f32e2e299)" style="fill: none; stroke: #b0b0b0; stroke-width: 0.8; stroke-linecap: square"/>
     </g>
     <g id="line2d_6">
      <g>
       <use xlink:href="#m9c59e07ca4" x="580.937143" y="629.9064" style="stroke: #000000; stroke-width: 0.8"/>
      </g>
     </g>
     <g id="text_3">
      <!-- 0.4 -->
      <g transform="translate(572.98558 644.504838) scale(0.1 -0.1)">
       <defs>
        <path id="DejaVuSans-34" d="M 2419 4116 
L 825 1625 
L 2419 1625 
L 2419 4116 
z
M 2253 4666 
L 3047 4666 
L 3047 1625 
L 3713 1625 
L 3713 1100 
L 3047 1100 
L 3047 0 
L 2419 0 
L 2419 1100 
L 313 1100 
L 313 1709 
L 2253 4666 
z
" transform="scale(0.015625)"/>
       </defs>
       <use xlink:href="#DejaVuSans-30"/>
       <use xlink:href="#DejaVuSans-2e" x="63.623047"/>
       <use xlink:href="#DejaVuSans-34" x="95.410156"/>
      </g>
     </g>
    </g>
    <g id="xtick_4">
     <g id="line2d_7">
      <path d="M 785.005714 629.9064 
L 785.005714 84.9312 
" clip-path="url(#p5f32e2e299)" style="fill: none; stroke: #b0b0b0; stroke-width: 0.8; stroke-linecap: square"/>
     </g>
     <g id="line2d_8">
      <g>
       <use xlink:href="#m9c59e07ca4" x="785.005714" y="629.9064" style="stroke: #000000; stroke-width: 0.8"/>
      </g>
     </g>
     <g id="text_4">
      <!-- 0.6 -->
      <g transform="translate(777.054152 644.504838) scale(0.1 -0.1)">
       <defs>
        <path id="DejaVuSans-36" d="M 2113 2584 
Q 1688 2584 1439 2293 
Q 1191 2003 1191 1497 
Q 1191 994 1439 701 
Q 1688 409 2113 409 
Q 2538 409 2786 701 
Q 3034 994 3034 1497 
Q 3034 2003 2786 2293 
Q 2538 2584 2113 2584 
z
M 3366 4563 
L 3366 3988 
Q 3128 4100 2886 4159 
Q 2644 4219 2406 4219 
Q 1781 4219 1451 3797 
Q 1122 3375 1075 2522 
Q 1259 2794 1537 2939 
Q 1816 3084 2150 3084 
Q 2853 3084 3261 2657 
Q 3669 2231 3669 1497 
Q 3669 778 3244 343 
Q 2819 -91 2113 -91 
Q 1303 -91 875 529 
Q 447 1150 447 2328 
Q 447 3434 972 4092 
Q 1497 4750 2381 4750 
Q 2619 4750 2861 4703 
Q 3103 4656 3366 4563 
z
" transform="scale(0.015625)"/>
       </defs>
       <use xlink:href="#DejaVuSans-30"/>
       <use xlink:href="#DejaVuSans-2e" x="63.623047"/>
       <use xlink:href="#DejaVuSans-36" x="95.410156"/>
      </g>
     </g>
    </g>
    <g id="xtick_5">
     <g id="line2d_9">
      <path d="M 989.074286 629.9064 
L 989.074286 84.9312 
" clip-path="url(#p5f32e2e299)" style="fill: none; stroke: #b0b0b0; stroke-width: 0.8; stroke-linecap: square"/>
     </g>
     <g id="line2d_10">
      <g>
       <use xlink:href="#m9c59e07ca4" x="989.074286" y="629.9064" style="stroke: #000000; stroke-width: 0.8"/>
      </g>
     </g>
     <g id="text_5">
      <!-- 0.8 -->
      <g transform="translate(981.122723 644.504838) scale(0.1 -0.1)">
       <defs>
        <path id="DejaVuSans-38" d="M 2034 2216 
Q 1584 2216 1326 1975 
Q 1069 1734 1069 1313 
Q 1069 891 1326 650 
Q 1584 409 2034 409 
Q 2484 409 2743 651 
Q 3003 894 3003 1313 
Q 3003 1734 2745 1975 
Q 2488 2216 2034 2216 
z
M 1403 2484 
Q 997 2584 770 2862 
Q 544 3141 544 3541 
Q 544 4100 942 4425 
Q 1341 4750 2034 4750 
Q 2731 4750 3128 4425 
Q 3525 4100 3525 3541 
Q 3525 3141 3298 2862 
Q 3072 2584 2669 2484 
Q 3125 2378 3379 2068 
Q 3634 1759 3634 1313 
Q 3634 634 3220 271 
Q 2806 -91 2034 -91 
Q 1263 -91 848 271 
Q 434 634 434 1313 
Q 434 1759 690 2068 
Q 947 2378 1403 2484 
z
M 1172 3481 
Q 1172 3119 1398 2916 
Q 1625 2713 2034 2713 
Q 2441 2713 2670 2916 
Q 2900 3119 2900 3481 
Q 2900 3844 2670 4047 
Q 2441 4250 2034 4250 
Q 1625 4250 1398 4047 
Q 1172 3844 1172 3481 
z
" transform="scale(0.015625)"/>
       </defs>
       <use xlink:href="#DejaVuSans-30"/>
       <use xlink:href="#DejaVuSans-2e" x="63.623047"/>
       <use xlink:href="#DejaVuSans-38" x="95.410156"/>
      </g>
     </g>
    </g>
    <g id="xtick_6">
     <g id="line2d_11">
      <path d="M 1193.142857 629.9064 
L 1193.142857 84.9312 
" clip-path="url(#p5f32e2e299)" style="fill: none; stroke: #b0b0b0; stroke-width: 0.8; stroke-linecap: square"/>
     </g>
     <g id="line2d_12">
      <g>
       <use xlink:href="#m9c59e07ca4" x="1193.142857" y="629.9064" style="stroke: #000000; stroke-width: 0.8"/>
      </g>
     </g>
     <g id="text_6">
      <!-- 1.0 -->
      <g transform="translate(1185.191295 644.504838) scale(0.1 -0.1)">
       <defs>
        <path id="DejaVuSans-31" d="M 794 531 
L 1825 531 
L 1825 4091 
L 703 3866 
L 703 4441 
L 1819 4666 
L 2450 4666 
L 2450 531 
L 3481 531 
L 3481 0 
L 794 0 
L 794 531 
z
" transform="scale(0.015625)"/>
       </defs>
       <use xlink:href="#DejaVuSans-31"/>
       <use xlink:href="#DejaVuSans-2e" x="63.623047"/>
       <use xlink:href="#DejaVuSans-30" x="95.410156"/>
      </g>
     </g>
    </g>
   </g>
   <g id="matplotlib.axis_2">
    <g id="ytick_1">
     <g id="line2d_13">
      <path d="M 172.8 629.9064 
L 1244.16 629.9064 
" clip-path="url(#p5f32e2e299)" style="fill: none; stroke: #b0b0b0; stroke-width: 0.8; stroke-linecap: square"/>
     </g>
     <g id="line2d_14">
      <defs>
       <path id="m22cf5c7f78" d="M 0 0 
L -3.5 0 
" style="stroke: #000000; stroke-width: 0.8"/>
      </defs>
      <g>
       <use xlink:href="#m22cf5c7f78" x="172.8" y="629.9064" style="stroke: #000000; stroke-width: 0.8"/>
      </g>
     </g>
     <g id="text_7">
      <!-- 0 -->
      <g transform="translate(159.4375 633.705619) scale(0.1 -0.1)">
       <use xlink:href="#DejaVuSans-30"/>
      </g>
     </g>
    </g>
    <g id="ytick_2">
     <g id="line2d_15">
      <path d="M 172.8 512.435902 
L 1244.16 512.435902 
" clip-path="url(#p5f32e2e299)" style="fill: none; stroke: #b0b0b0; stroke-width: 0.8; stroke-linecap: square"/>
     </g>
     <g id="line2d_16">
      <g>
       <use xlink:href="#m22cf5c7f78" x="172.8" y="512.435902" style="stroke: #000000; stroke-width: 0.8"/>
      </g>
     </g>
     <g id="text_8">
      <!-- 500 -->
      <g transform="translate(146.7125 516.23512) scale(0.1 -0.1)">
       <defs>
        <path id="DejaVuSans-35" d="M 691 4666 
L 3169 4666 
L 3169 4134 
L 1269 4134 
L 1269 2991 
Q 1406 3038 1543 3061 
Q 1681 3084 1819 3084 
Q 2600 3084 3056 2656 
Q 3513 2228 3513 1497 
Q 3513 744 3044 326 
Q 2575 -91 1722 -91 
Q 1428 -91 1123 -41 
Q 819 9 494 109 
L 494 744 
Q 775 591 1075 516 
Q 1375 441 1709 441 
Q 2250 441 2565 725 
Q 2881 1009 2881 1497 
Q 2881 1984 2565 2268 
Q 2250 2553 1709 2553 
Q 1456 2553 1204 2497 
Q 953 2441 691 2322 
L 691 4666 
z
" transform="scale(0.015625)"/>
       </defs>
       <use xlink:href="#DejaVuSans-35"/>
       <use xlink:href="#DejaVuSans-30" x="63.623047"/>
       <use xlink:href="#DejaVuSans-30" x="127.246094"/>
      </g>
     </g>
    </g>
    <g id="ytick_3">
     <g id="line2d_17">
      <path d="M 172.8 394.965403 
L 1244.16 394.965403 
" clip-path="url(#p5f32e2e299)" style="fill: none; stroke: #b0b0b0; stroke-width: 0.8; stroke-linecap: square"/>
     </g>
     <g id="line2d_18">
      <g>
       <use xlink:href="#m22cf5c7f78" x="172.8" y="394.965403" style="stroke: #000000; stroke-width: 0.8"/>
      </g>
     </g>
     <g id="text_9">
      <!-- 1000 -->
      <g transform="translate(140.35 398.764622) scale(0.1 -0.1)">
       <use xlink:href="#DejaVuSans-31"/>
       <use xlink:href="#DejaVuSans-30" x="63.623047"/>
       <use xlink:href="#DejaVuSans-30" x="127.246094"/>
       <use xlink:href="#DejaVuSans-30" x="190.869141"/>
      </g>
     </g>
    </g>
    <g id="ytick_4">
     <g id="line2d_19">
      <path d="M 172.8 277.494905 
L 1244.16 277.494905 
" clip-path="url(#p5f32e2e299)" style="fill: none; stroke: #b0b0b0; stroke-width: 0.8; stroke-linecap: square"/>
     </g>
     <g id="line2d_20">
      <g>
       <use xlink:href="#m22cf5c7f78" x="172.8" y="277.494905" style="stroke: #000000; stroke-width: 0.8"/>
      </g>
     </g>
     <g id="text_10">
      <!-- 1500 -->
      <g transform="translate(140.35 281.294124) scale(0.1 -0.1)">
       <use xlink:href="#DejaVuSans-31"/>
       <use xlink:href="#DejaVuSans-35" x="63.623047"/>
       <use xlink:href="#DejaVuSans-30" x="127.246094"/>
       <use xlink:href="#DejaVuSans-30" x="190.869141"/>
      </g>
     </g>
    </g>
    <g id="ytick_5">
     <g id="line2d_21">
      <path d="M 172.8 160.024407 
L 1244.16 160.024407 
" clip-path="url(#p5f32e2e299)" style="fill: none; stroke: #b0b0b0; stroke-width: 0.8; stroke-linecap: square"/>
     </g>
     <g id="line2d_22">
      <g>
       <use xlink:href="#m22cf5c7f78" x="172.8" y="160.024407" style="stroke: #000000; stroke-width: 0.8"/>
      </g>
     </g>
     <g id="text_11">
      <!-- 2000 -->
      <g transform="translate(140.35 163.823626) scale(0.1 -0.1)">
       <use xlink:href="#DejaVuSans-32"/>
       <use xlink:href="#DejaVuSans-30" x="63.623047"/>
       <use xlink:href="#DejaVuSans-30" x="127.246094"/>
       <use xlink:href="#DejaVuSans-30" x="190.869141"/>
      </g>
     </g>
    </g>
   </g>
   <g id="line2d_23">
    <path d="M 173.185723 628.836459 
L 173.839565 595.649842 
L 174.083726 583.40295 
L 174.760138 548.782778 
L 175.181003 528.127426 
L 175.488166 514.242427 
L 178.300572 404.212917 
L 178.914061 391.621449 
L 179.939665 382.507244 
L 180.587764 379.826481 
L 180.673879 380.023839 
L 181.563493 378.345602 
L 182.348895 377.416528 
L 182.626029 377.381673 
L 182.785334 377.318738 
L 183.082673 376.919061 
L 183.226494 377.236107 
L 183.387746 376.914181 
L 183.545971 377.056728 
L 183.703866 376.690934 
L 183.854181 376.949972 
L 184.185024 376.842576 
L 184.667214 376.906957 
L 184.830652 376.850239 
L 185.007349 376.484872 
L 185.165363 376.851637 
L 185.344293 376.761532 
L 185.508662 376.880771 
L 185.840079 376.695991 
L 186.025308 376.737858 
L 186.196433 376.630143 
L 186.373374 376.730219 
L 186.717056 376.644745 
L 187.074645 376.565004 
L 187.43246 376.462559 
L 187.605 376.714811 
L 187.79994 376.473585 
L 188.151392 376.604241 
L 188.35416 376.378341 
L 188.520584 376.81285 
L 188.703909 376.811535 
L 188.897018 376.456981 
L 189.077416 376.545463 
L 189.263874 376.459871 
L 189.446761 376.527413 
L 189.637058 376.422505 
L 190.169813 376.699343 
L 190.544678 376.385779 
L 190.739455 376.411597 
L 190.915114 376.277685 
L 191.290272 376.556501 
L 191.479116 376.512455 
L 191.660339 376.728999 
L 191.852966 376.336333 
L 192.0267 376.634868 
L 192.211915 376.677196 
L 192.391173 376.4952 
L 192.578557 376.628863 
L 192.962441 376.396864 
L 193.331647 376.633328 
L 193.512284 376.593866 
L 193.887447 376.233414 
L 194.07818 376.439287 
L 194.261036 376.393702 
L 194.448189 376.507446 
L 195.041718 376.189203 
L 195.21656 376.355614 
L 195.411704 376.095795 
L 195.593503 376.300436 
L 195.781652 376.094575 
L 196.158989 376.173499 
L 196.348082 376.421783 
L 196.923341 375.991846 
L 197.475096 376.26262 
L 198.416145 375.919684 
L 198.602975 376.046645 
L 198.797486 375.724471 
L 199.164658 375.826714 
L 199.939328 375.697835 
L 200.480253 375.886322 
L 200.679018 375.663146 
L 200.862223 375.777079 
L 201.051197 375.679928 
L 201.236267 375.714439 
L 201.430819 375.44755 
L 201.619575 375.678791 
L 201.812093 375.357079 
L 202.001269 375.335962 
L 202.179828 375.436204 
L 202.382743 375.19852 
L 202.55568 375.549047 
L 202.740227 375.611343 
L 202.927965 375.20578 
L 203.11119 375.645227 
L 203.300423 375.263445 
L 203.477819 375.437673 
L 203.680185 375.264665 
L 203.868266 375.316574 
L 204.054991 375.086079 
L 204.430954 375.234038 
L 204.612352 375.257796 
L 205.002891 374.955282 
L 205.181712 375.042342 
L 205.566301 374.908346 
L 205.741481 375.096762 
L 206.493025 374.787462 
L 207.038803 375.019792 
L 207.231394 374.83474 
L 207.421081 374.920829 
L 207.618333 374.637714 
L 207.982579 374.876914 
L 208.36412 374.65561 
L 208.559452 374.408416 
L 208.918237 374.688321 
L 209.287399 374.784619 
L 209.480487 374.5079 
L 209.850883 374.462492 
L 210.03584 374.426311 
L 210.224672 374.511938 
L 210.601131 374.29832 
L 210.789501 374.548155 
L 210.980313 374.485374 
L 211.170211 374.104634 
L 211.350717 374.551199 
L 211.535255 374.308304 
L 211.727324 374.503364 
L 211.918032 373.958321 
L 212.093805 374.331292 
L 212.282468 374.163022 
L 212.832121 374.212266 
L 213.030398 374.218804 
L 213.222351 374.04055 
L 213.394693 374.213533 
L 213.76493 373.921394 
L 213.951041 374.138541 
L 214.33758 373.770877 
L 214.514602 374.003326 
L 214.890398 373.729994 
L 215.070899 373.934197 
L 215.269927 373.882264 
L 215.457399 373.691835 
L 216.573846 373.652728 
L 216.75802 373.59466 
L 217.129681 373.715711 
L 217.327484 373.469192 
L 217.508884 373.733061 
L 217.706282 373.590503 
L 218.057844 373.722734 
L 218.24917 373.598177 
L 218.611821 373.801397 
L 218.99006 373.394401 
L 219.166459 373.604644 
L 219.540022 373.342373 
L 219.729503 373.343214 
L 219.916942 373.568841 
L 220.099802 373.346447 
L 220.285849 373.497545 
L 220.662649 373.364627 
L 221.036795 373.195824 
L 221.213447 373.237808 
L 221.408417 373.398487 
L 221.609183 373.097169 
L 221.969055 373.407594 
L 222.168399 373.096742 
L 222.343713 373.343818 
L 222.906943 373.092289 
L 223.089832 373.11414 
L 223.284647 372.958471 
L 223.663859 373.088251 
L 223.8545 373.078551 
L 224.042945 373.20158 
L 224.976085 373.040001 
L 225.17649 372.885256 
L 225.738892 373.05143 
L 225.917112 372.832375 
L 226.099903 373.086889 
L 226.3006 372.890112 
L 226.491604 372.85881 
L 226.67233 372.964393 
L 226.866632 372.83337 
L 227.052398 373.021762 
L 227.241247 372.785393 
L 227.622829 372.934951 
L 227.794615 373.023953 
L 228.184001 372.715434 
L 228.360891 372.863488 
L 228.739592 372.965364 
L 228.94387 372.70455 
L 229.122741 372.842999 
L 229.879525 372.737226 
L 230.062156 372.919933 
L 230.261039 372.912768 
L 230.457863 372.501449 
L 231.014904 372.911394 
L 231.213299 372.638382 
L 232.755609 372.601063 
L 232.947412 372.578703 
L 233.316382 372.694377 
L 233.515064 372.452062 
L 233.696294 372.66163 
L 234.071531 372.83215 
L 234.462104 372.505867 
L 235.820258 372.692731 
L 236.192601 372.590937 
L 236.377067 372.840666 
L 236.775638 372.591482 
L 236.960956 372.707689 
L 237.150399 372.527777 
L 237.337886 372.767794 
L 237.729348 372.515448 
L 238.111631 372.753523 
L 238.500681 372.612812 
L 238.698473 372.749022 
L 239.092291 372.536257 
L 239.472057 372.774769 
L 239.654728 372.763459 
L 239.860085 372.615974 
L 240.249841 372.837077 
L 240.436822 372.614257 
L 240.822262 372.843994 
L 241.011676 372.79919 
L 241.209128 372.508401 
L 241.595423 372.897798 
L 241.797059 372.633478 
L 242.587332 372.932629 
L 243.179764 372.720918 
L 243.362464 373.041718 
L 243.572677 372.572438 
L 243.764699 372.771903 
L 243.956741 372.799558 
L 244.160356 372.645334 
L 244.339163 372.855731 
L 244.544293 372.833986 
L 244.742989 373.01847 
L 244.949281 372.731091 
L 245.340429 372.638926 
L 245.531828 372.957406 
L 245.737195 372.805965 
L 245.937668 372.813995 
L 246.135674 373.023029 
L 246.327637 372.860823 
L 246.511329 373.160377 
L 246.720394 373.118025 
L 246.919583 372.810619 
L 247.117749 373.087114 
L 247.509752 372.902429 
L 248.511907 373.21122 
L 248.715494 372.99714 
L 248.905939 373.20775 
L 249.116055 373.231531 
L 249.319141 373.044987 
L 249.714219 373.127511 
L 249.916989 373.313783 
L 250.119003 373.337766 
L 250.307342 373.530007 
L 250.513478 373.554712 
L 250.704532 373.383245 
L 250.895279 373.670576 
L 251.100759 373.388574 
L 251.510131 373.509767 
L 251.933229 373.321754 
L 252.114551 373.732161 
L 252.325222 373.546765 
L 252.53253 373.57275 
L 252.723891 373.778196 
L 253.550246 373.612141 
L 253.950461 373.820465 
L 254.775536 373.779523 
L 255.185269 374.01755 
L 255.390675 373.879101 
L 255.582069 374.164313 
L 255.806733 373.941018 
L 256.407324 374.192121 
L 256.807861 374.056716 
L 257.012383 374.342365 
L 257.431768 374.392534 
L 257.643781 374.372945 
L 257.831341 374.571333 
L 259.081743 374.587463 
L 259.476782 374.965337 
L 259.697475 374.608106 
L 259.89354 374.960386 
L 260.10856 374.803391 
L 261.143494 375.224552 
L 261.57295 375.049862 
L 261.782201 375.48475 
L 262.210295 375.355681 
L 262.421325 375.482061 
L 262.626459 375.44588 
L 262.824937 375.962226 
L 263.036474 375.915622 
L 263.24912 375.695218 
L 263.45293 376.091614 
L 264.086646 376.045899 
L 264.293181 376.433887 
L 264.710912 376.272948 
L 264.922011 376.619412 
L 265.138725 376.235984 
L 265.350748 376.513095 
L 265.55917 376.484221 
L 265.778472 376.772038 
L 265.994388 376.812648 
L 266.20428 377.072858 
L 266.420127 377.06156 
L 266.63762 376.895978 
L 266.85552 377.214741 
L 267.293053 377.217904 
L 267.71676 377.741344 
L 268.367756 377.82992 
L 268.563237 378.0582 
L 268.786072 378.044758 
L 269.002688 378.208101 
L 269.223041 378.105455 
L 269.430616 378.321691 
L 269.645831 378.332504 
L 269.855899 378.768528 
L 270.293276 378.716453 
L 270.501826 379.022402 
L 270.723969 378.981696 
L 270.928217 379.379182 
L 271.158311 379.016421 
L 271.365118 379.408956 
L 271.803751 379.566899 
L 272.020981 379.668527 
L 272.248505 379.898785 
L 272.465072 379.79666 
L 272.903501 380.209234 
L 273.129449 380.117093 
L 273.553622 380.663497 
L 273.999738 380.877423 
L 274.217385 380.793798 
L 274.63792 381.41318 
L 274.863814 381.261515 
L 275.085647 381.359684 
L 275.285747 381.72665 
L 275.521711 381.642728 
L 275.952571 382.068318 
L 276.171353 382.050174 
L 276.382401 382.443811 
L 276.608693 382.52148 
L 276.830648 382.436966 
L 277.048613 382.88616 
L 277.259528 382.856457 
L 277.701378 383.206889 
L 278.142941 383.595848 
L 278.353509 383.636968 
L 278.58527 383.535672 
L 279.017793 384.167431 
L 279.457806 384.367394 
L 279.676955 384.340557 
L 280.565031 385.113062 
L 280.799322 384.93816 
L 281.234223 385.596045 
L 281.448169 385.618169 
L 281.672215 385.98922 
L 281.898568 386.027392 
L 282.116279 386.442204 
L 282.333153 386.490324 
L 282.575025 386.405312 
L 282.792287 386.933975 
L 283.233748 386.939234 
L 283.668822 387.334209 
L 284.110427 387.640726 
L 285.233334 388.481485 
L 286.556189 389.765077 
L 286.779674 389.736902 
L 287.21332 390.061066 
L 287.648241 390.637777 
L 287.875716 390.605741 
L 288.101467 390.699943 
L 288.3223 390.980476 
L 288.552377 390.973536 
L 288.782954 391.118901 
L 289.235711 391.889381 
L 289.450054 391.916017 
L 289.678581 391.827464 
L 290.12948 392.493829 
L 290.3562 392.561727 
L 290.584084 392.941389 
L 290.809529 392.769128 
L 291.01626 393.365665 
L 291.245297 393.320305 
L 291.689982 393.777197 
L 292.157259 393.888003 
L 292.371194 394.241408 
L 293.066568 394.658021 
L 293.507907 395.452022 
L 293.736607 395.609101 
L 293.963449 395.540303 
L 294.408798 395.920343 
L 294.832526 396.469673 
L 295.060726 396.516087 
L 295.9703 397.491457 
L 296.203204 397.591568 
L 296.422945 397.970626 
L 296.651012 398.061358 
L 296.87765 398.345894 
L 297.104064 398.35923 
L 297.331632 398.573097 
L 297.551332 399.002051 
L 298.466753 399.596148 
L 298.906225 400.103848 
L 299.13373 400.338796 
L 299.36445 400.326242 
L 299.590813 400.853886 
L 299.817738 400.839781 
L 300.285432 401.506869 
L 300.515305 401.418458 
L 300.977031 401.960196 
L 301.409136 402.532679 
L 301.643254 402.783379 
L 301.862403 402.746534 
L 302.100908 402.913466 
L 302.323434 403.505917 
L 302.549593 403.372846 
L 303.000656 404.042053 
L 303.23908 404.177885 
L 303.451362 404.502084 
L 303.691204 404.470166 
L 303.911231 404.964602 
L 304.146277 405.142927 
L 304.38066 405.466629 
L 304.609217 405.250026 
L 304.851895 405.524886 
L 305.068963 406.080955 
L 305.759296 406.616842 
L 305.988486 406.801752 
L 306.213094 407.227721 
L 306.438896 407.259414 
L 306.67387 407.44051 
L 307.58974 408.582859 
L 307.822776 408.730214 
L 308.063077 409.027423 
L 308.299287 409.117373 
L 308.514416 409.526276 
L 308.990651 409.785562 
L 309.218289 410.275912 
L 309.685943 410.71408 
L 309.917091 411.016025 
L 310.151148 411.058377 
L 310.377807 411.251412 
L 311.059865 412.239241 
L 311.524488 412.682217 
L 312.221127 413.412193 
L 312.456827 413.701064 
L 312.690822 413.783185 
L 314.542336 415.928132 
L 314.789994 416.104823 
L 315.001847 416.666505 
L 315.245342 416.519636 
L 315.47347 416.972691 
L 316.182843 417.725121 
L 316.644967 418.473135 
L 316.889676 418.487098 
L 317.344769 419.269078 
L 317.818116 419.743202 
L 318.044408 420.055215 
L 318.284056 420.084053 
L 318.506878 420.658076 
L 318.75322 420.664033 
L 319.216394 421.437155 
L 319.448808 421.531972 
L 320.384115 422.745239 
L 320.855299 423.570317 
L 321.092519 423.589112 
L 321.327973 424.082849 
L 321.817728 424.340347 
L 322.049447 424.919226 
L 322.288157 425.152137 
L 322.52356 425.602385 
L 322.769963 425.525652 
L 322.999366 426.032487 
L 323.237096 426.128809 
L 323.472356 426.699871 
L 323.952295 427.141296 
L 324.42752 427.843416 
L 325.393417 428.988857 
L 325.622168 429.533117 
L 326.095229 429.938124 
L 326.335234 430.484694 
L 326.832682 430.859523 
L 327.073238 431.088834 
L 327.555003 431.955091 
L 327.798222 432.123871 
L 328.501024 433.389402 
L 328.760804 433.554569 
L 329.230202 434.446219 
L 329.476492 434.457695 
L 329.70457 435.015184 
L 329.947217 435.14719 
L 330.182631 435.694482 
L 330.424136 435.771286 
L 331.401155 437.258419 
L 331.635313 437.82877 
L 332.391928 438.596881 
L 332.617342 439.279579 
L 332.871285 439.415292 
L 333.103291 439.987526 
L 333.605004 440.633272 
L 333.851774 441.111174 
L 334.110686 441.241558 
L 335.104581 443.176842 
L 335.372493 443.472061 
L 335.968424 445.336616 
L 305.254012 630.063967 
L 361.216451 629.508827 
L 418.903279 629.712501 
L 418.903279 629.712501 
" clip-path="url(#p5f32e2e299)" style="fill: none; stroke: #1f77b4; stroke-width: 1.5; stroke-linecap: square"/>
   </g>
   <g id="line2d_24">
    <path d="M 173.18565 628.836054 
L 173.839036 595.61494 
L 174.082919 583.344442 
L 174.758257 548.626935 
L 175.178229 527.889921 
L 175.484631 513.937702 
L 178.329441 401.824733 
L 179.237582 385.664154 
L 179.288296 385.492897 
L 179.598493 382.788773 
L 180.558194 377.917747 
L 180.643653 378.095521 
L 181.526073 376.185004 
L 182.30449 375.053598 
L 182.579018 374.949829 
L 182.736791 374.846851 
L 183.031206 374.369539 
L 183.173582 374.654166 
L 183.33319 374.288968 
L 183.489779 374.393784 
L 183.646016 373.984954 
L 183.794731 374.209495 
L 184.121976 374.018881 
L 184.598733 373.964418 
L 184.76028 373.866506 
L 184.934902 373.452945 
L 185.091036 373.784909 
L 185.267808 373.64932 
L 185.430168 373.729265 
L 185.757455 373.459938 
L 185.94033 373.45638 
L 186.109252 373.304791 
L 186.283885 373.362277 
L 186.622999 373.190361 
L 186.975715 373.020746 
L 187.328533 372.82799 
L 187.498619 373.041044 
L 187.690753 372.7479 
L 188.037054 372.793227 
L 188.236797 372.513546 
L 188.400709 372.913397 
L 188.581236 372.866589 
L 188.771364 372.458541 
L 188.948945 372.503624 
L 189.132458 372.370352 
L 189.312425 372.393568 
L 189.49965 372.239673 
L 190.023622 372.388871 
L 190.392146 371.976828 
L 190.583575 371.954705 
L 190.756185 371.774774 
L 191.124732 371.965389 
L 191.310198 371.873647 
L 191.488147 372.049188 
L 191.677261 371.601393 
L 191.847796 371.862378 
L 192.029569 371.859537 
L 192.205465 371.629558 
L 192.389302 371.719274 
L 192.765818 371.3874 
L 193.127805 371.536891 
L 193.304863 371.45179 
L 193.672496 370.99075 
L 193.85935 371.153496 
L 194.038455 371.061529 
L 194.221736 371.131186 
L 194.802769 370.658605 
L 194.973866 370.785196 
L 195.164797 370.471126 
L 195.34264 370.635116 
L 195.52666 370.377855 
L 195.895619 370.364722 
L 196.080463 370.571713 
L 196.64259 369.9887 
L 197.18146 370.128717 
L 198.099875 369.543239 
L 198.282113 369.626904 
L 198.471809 369.248127 
L 198.829796 369.261544 
L 199.584674 368.936334 
L 200.111448 368.995168 
L 200.304944 368.71641 
L 200.483262 368.787826 
L 201.036488 368.307435 
L 201.220076 368.498134 
L 201.407288 368.119307 
L 201.591217 368.050392 
L 201.764793 368.10897 
L 201.962011 367.813789 
L 202.130061 368.131368 
L 202.309362 368.149487 
L 202.491732 367.68516 
L 202.669687 368.091924 
L 202.853445 367.651574 
L 203.025677 367.786768 
L 203.222117 367.558056 
L 203.404657 367.564607 
L 203.585849 367.280461 
L 203.772838 367.375153 
L 204.1265 367.318336 
L 204.505161 366.908807 
L 204.678496 366.953948 
L 205.051187 366.719586 
L 205.220903 366.870305 
L 205.948683 366.363108 
L 206.476878 366.466773 
L 206.663199 366.227366 
L 206.846677 366.268957 
L 207.037438 365.926887 
L 207.389604 366.083208 
L 207.75836 365.758826 
L 207.947096 365.454104 
L 208.293674 365.654076 
L 208.650153 365.66148 
L 208.836557 365.326533 
L 209.194037 365.186765 
L 209.372498 365.102959 
L 209.554665 365.144446 
L 209.91774 364.828685 
L 210.099365 365.040633 
L 210.283311 364.927748 
L 210.466343 364.485154 
L 210.640292 364.903338 
L 210.818097 364.605038 
L 211.003123 364.759426 
L 211.186807 364.145752 
L 211.356076 364.488994 
L 211.537726 364.266956 
L 212.066766 364.180365 
L 212.257539 364.137473 
L 212.442194 363.904056 
L 212.607955 364.040705 
L 212.963964 363.644056 
L 213.142875 363.82327 
L 213.514362 363.343745 
L 213.684445 363.54126 
L 214.045417 363.162402 
L 214.218752 363.329746 
L 214.409845 363.225722 
L 214.58981 362.980291 
L 215.660893 362.65916 
L 215.837475 362.552336 
L 216.018537 362.637454 
L 216.193723 362.585284 
L 216.383273 362.278342 
L 216.557073 362.508183 
L 216.746167 362.309791 
L 217.082853 362.359573 
L 217.266036 362.181431 
L 217.613164 362.302678 
L 217.975086 361.782319 
L 218.143831 361.95777 
L 218.501094 361.589649 
L 218.68226 361.542884 
L 218.861441 361.731799 
L 219.036215 361.453156 
L 219.214004 361.564504 
L 219.74739 361.159443 
L 220.099967 361.059342 
L 220.286089 361.17863 
L 220.477707 360.812427 
L 220.648179 361.017007 
L 220.821092 361.047236 
L 221.011254 360.671231 
L 221.178463 360.886179 
L 221.71547 360.480676 
L 221.889784 360.457571 
L 222.075431 360.245171 
L 222.4367 360.285925 
L 222.618273 360.227756 
L 222.797722 360.30953 
L 223.685853 359.904923 
L 223.876491 359.691784 
L 224.411294 359.724912 
L 224.580708 359.44959 
L 224.75444 359.671344 
L 225.126628 359.332673 
L 225.298304 359.398302 
L 225.482846 359.211407 
L 225.659248 359.363013 
L 225.838547 359.066486 
L 226.200736 359.127923 
L 226.36375 359.178459 
L 226.733155 358.755161 
L 226.900924 358.86669 
L 227.260005 358.87875 
L 227.453648 358.552144 
L 227.623176 358.653146 
L 228.340119 358.350793 
L 228.51306 358.497723 
L 228.701357 358.440063 
L 228.88767 357.955927 
L 229.414781 358.248735 
L 229.602451 357.910123 
L 231.060205 357.481736 
L 231.241347 357.409689 
L 231.589718 357.43917 
L 231.589718 357.43917 
" clip-path="url(#p5f32e2e299)" style="fill: none; stroke: #ff7f0e; stroke-width: 1.5; stroke-linecap: square"/>
   </g>
   <g id="line2d_25">
    <path d="M 172.8 377.846768 
L 173.455351 376.195609 
L 173.579228 376.185004 
L 174.357645 375.053598 
L 174.632173 374.949829 
L 174.789946 374.846851 
L 175.084361 374.369539 
L 175.226737 374.654166 
L 175.386345 374.288968 
L 175.542934 374.393784 
L 175.699171 373.984954 
L 175.847886 374.209495 
L 176.175131 374.018881 
L 176.651888 373.964418 
L 176.813435 373.866506 
L 176.988057 373.452945 
L 177.144191 373.784909 
L 177.320963 373.64932 
L 177.483323 373.729265 
L 177.81061 373.459938 
L 177.993485 373.45638 
L 178.162407 373.304791 
L 178.33704 373.362277 
L 178.676154 373.190361 
L 179.02887 373.020746 
L 179.381688 372.82799 
L 179.551774 373.041044 
L 179.743908 372.7479 
L 180.090209 372.793227 
L 180.289952 372.513546 
L 180.453864 372.913397 
L 180.634391 372.866589 
L 180.824519 372.458541 
L 181.0021 372.503624 
L 181.185613 372.370352 
L 181.36558 372.393568 
L 181.552805 372.239673 
L 182.076777 372.388871 
L 182.4453 371.976828 
L 182.63673 371.954705 
L 182.80934 371.774774 
L 183.177887 371.965389 
L 183.363353 371.873647 
L 183.541302 372.049188 
L 183.730416 371.601393 
L 183.900951 371.862378 
L 184.082724 371.859537 
L 184.25862 371.629558 
L 184.442457 371.719274 
L 184.818973 371.3874 
L 185.18096 371.536891 
L 185.358018 371.45179 
L 185.725651 370.99075 
L 185.912505 371.153496 
L 186.09161 371.061529 
L 186.274891 371.131186 
L 186.855924 370.658605 
L 187.027021 370.785196 
L 187.217952 370.471126 
L 187.395795 370.635116 
L 187.579815 370.377855 
L 187.948774 370.364722 
L 188.133618 370.571713 
L 188.695745 369.9887 
L 189.234615 370.128717 
L 190.15303 369.543239 
L 190.335268 369.626904 
L 190.524964 369.248127 
L 190.882951 369.261544 
L 191.637829 368.936334 
L 192.164603 368.995168 
L 192.358099 368.71641 
L 192.536417 368.787826 
L 193.089643 368.307435 
L 193.273231 368.498134 
L 193.460443 368.119307 
L 193.644372 368.050392 
L 193.817948 368.10897 
L 194.015166 367.813789 
L 194.183216 368.131368 
L 194.362517 368.149487 
L 194.544887 367.68516 
L 194.722842 368.091924 
L 194.9066 367.651574 
L 195.078832 367.786768 
L 195.275272 367.558056 
L 195.457812 367.564607 
L 195.639004 367.280461 
L 195.825993 367.375153 
L 196.179655 367.318336 
L 196.558316 366.908807 
L 196.731651 366.953948 
L 197.104342 366.719586 
L 197.274058 366.870305 
L 198.001838 366.363108 
L 198.530033 366.466773 
L 198.716354 366.227366 
L 198.899832 366.268957 
L 199.090593 365.926887 
L 199.442759 366.083208 
L 199.811515 365.758826 
L 200.000251 365.454104 
L 200.346829 365.654076 
L 200.703308 365.66148 
L 200.889712 365.326533 
L 201.247192 365.186765 
L 201.425653 365.102959 
L 201.60782 365.144446 
L 201.970895 364.828685 
L 202.15252 365.040633 
L 202.336466 364.927748 
L 202.519498 364.485154 
L 202.693447 364.903338 
L 202.871252 364.605038 
L 203.056278 364.759426 
L 203.239962 364.145752 
L 203.409231 364.488994 
L 203.590881 364.266956 
L 204.119921 364.180365 
L 204.310694 364.137473 
L 204.495349 363.904056 
L 204.66111 364.040705 
L 205.017119 363.644056 
L 205.19603 363.82327 
L 205.567517 363.343745 
L 205.7376 363.54126 
L 206.098572 363.162402 
L 206.271907 363.329746 
L 206.463 363.225722 
L 206.642965 362.980291 
L 207.714048 362.65916 
L 207.89063 362.552336 
L 208.071692 362.637454 
L 208.246878 362.585284 
L 208.436428 362.278342 
L 208.610228 362.508183 
L 208.799322 362.309791 
L 209.136008 362.359573 
L 209.319191 362.181431 
L 209.666319 362.302678 
L 210.028241 361.782319 
L 210.196986 361.95777 
L 210.554249 361.589649 
L 210.735415 361.542884 
L 210.914596 361.731799 
L 211.08937 361.453156 
L 211.267159 361.564504 
L 211.800545 361.159443 
L 212.153122 361.059342 
L 212.339244 361.17863 
L 212.530862 360.812427 
L 212.701334 361.017007 
L 212.874247 361.047236 
L 213.064409 360.671231 
L 213.231618 360.886179 
L 213.768625 360.480676 
L 213.942939 360.457571 
L 214.128586 360.245171 
L 214.489855 360.285925 
L 214.671428 360.227756 
L 214.850877 360.30953 
L 215.739008 359.904923 
L 215.929646 359.691784 
L 216.464449 359.724912 
L 216.633863 359.44959 
L 216.807595 359.671344 
L 217.179783 359.332673 
L 217.351459 359.398302 
L 217.536001 359.211407 
L 217.712403 359.363013 
L 217.891702 359.066486 
L 218.253891 359.127923 
L 218.416905 359.178459 
L 218.78631 358.755161 
L 218.954079 358.86669 
L 219.31316 358.87875 
L 219.506803 358.552144 
L 219.676331 358.653146 
L 220.393274 358.350793 
L 220.566215 358.497723 
L 220.754512 358.440063 
L 220.940825 357.955927 
L 221.467936 358.248735 
L 221.655606 357.910123 
L 223.11336 357.481736 
L 223.294502 357.409689 
L 223.642873 357.43917 
L 223.642873 357.43917 
" clip-path="url(#p5f32e2e299)" style="fill: none; stroke: #2ca02c; stroke-width: 1.5; stroke-linecap: square"/>
   </g>
   <g id="line2d_26">
    <path d="M 172.8 375.868842 
L 183.106494 371.971766 
L 193.412987 368.127861 
L 203.719481 364.334946 
L 214.025974 360.590986 
L 224.332468 356.894077 
L 234.638961 353.242439 
L 244.945455 349.634399 
L 255.251948 346.068387 
L 265.558442 342.542925 
L 275.864935 339.05662 
L 286.171429 335.608157 
L 296.477922 332.196295 
L 306.784416 328.819858 
L 317.090909 325.477733 
L 327.397403 322.168864 
L 337.703896 318.892248 
L 348.01039 315.646934 
L 358.316883 312.432013 
L 368.623377 309.246623 
L 378.92987 306.089941 
L 389.236364 302.961182 
L 399.542857 299.859594 
L 409.849351 296.784463 
L 420.155844 293.735101 
L 430.462338 290.710854 
L 440.768831 287.711091 
L 451.075325 284.735211 
L 461.381818 281.782634 
L 471.688312 278.852806 
L 481.994805 275.945193 
L 492.301299 273.059282 
L 502.607792 270.194581 
L 512.914286 267.350614 
L 523.220779 264.526924 
L 533.527273 261.723071 
L 543.833766 258.93863 
L 554.14026 256.173191 
L 564.446753 253.426359 
L 574.753247 250.697752 
L 585.05974 247.987002 
L 595.366234 245.293752 
L 605.672727 242.617656 
L 615.979221 239.958383 
L 626.285714 237.315608 
L 636.592208 234.68902 
L 646.898701 232.078315 
L 657.205195 229.483201 
L 667.511688 226.903393 
L 677.818182 224.338615 
L 688.124675 221.7886 
L 698.431169 219.253088 
L 708.737662 216.731827 
L 719.044156 214.224572 
L 729.350649 211.731086 
L 739.657143 209.251136 
L 749.963636 206.784499 
L 760.27013 204.330957 
L 770.576623 201.890295 
L 780.883117 199.462308 
L 791.18961 197.046794 
L 801.496104 194.643557 
L 811.802597 192.252406 
L 822.109091 189.873156 
L 832.415584 187.505624 
L 842.722078 185.149634 
L 853.028571 182.805015 
L 863.335065 180.471597 
L 873.641558 178.149218 
L 883.948052 175.837717 
L 894.254545 173.536937 
L 904.561039 171.246728 
L 914.867532 168.96694 
L 925.174026 166.697428 
L 935.480519 164.438049 
L 945.787013 162.188666 
L 956.093506 159.949143 
L 966.4 157.719347 
L 976.706494 155.499149 
L 987.012987 153.288423 
L 997.319481 151.087044 
L 1007.625974 148.894891 
L 1017.932468 146.711846 
L 1028.238961 144.537792 
L 1038.545455 142.372617 
L 1048.851948 140.216209 
L 1059.158442 138.068459 
L 1069.464935 135.929261 
L 1079.771429 133.79851 
L 1090.077922 131.676104 
L 1100.384416 129.561942 
L 1110.690909 127.455927 
L 1120.997403 125.357961 
L 1131.303896 123.267952 
L 1141.61039 121.185805 
L 1151.916883 119.111431 
L 1162.223377 117.044741 
L 1172.52987 114.985646 
L 1182.836364 112.934061 
L 1193.142857 110.889903 
" clip-path="url(#p5f32e2e299)" style="fill: none; stroke: #d62728; stroke-width: 1.5; stroke-linecap: square"/>
   </g>
   <g id="line2d_27">
    <path d="M 172.8 375.868543 
L 183.106494 371.972328 
L 193.412987 368.127725 
L 203.719481 364.334049 
L 214.025974 360.590627 
L 224.332468 356.896791 
L 234.638961 353.251887 
L 244.945455 349.655264 
L 255.251948 346.106284 
L 265.558442 342.604316 
L 275.864935 339.148736 
L 286.171429 335.738931 
L 296.477922 332.374294 
L 306.784416 329.054227 
L 317.090909 325.778139 
L 327.397403 322.545447 
L 337.703896 319.355578 
L 348.01039 316.207963 
L 358.316883 313.102044 
L 368.623377 310.037266 
L 378.92987 307.013087 
L 389.236364 304.028967 
L 399.542857 301.084376 
L 409.849351 298.178791 
L 420.155844 295.311695 
L 430.462338 292.482578 
L 440.768831 289.690937 
L 451.075325 286.936275 
L 461.381818 284.218103 
L 471.688312 281.535938 
L 481.994805 278.889301 
L 492.301299 276.277724 
L 502.607792 273.70074 
L 512.914286 271.157893 
L 523.220779 268.648729 
L 533.527273 266.172804 
L 543.833766 263.729675 
L 554.14026 261.31891 
L 564.446753 258.940079 
L 574.753247 256.592759 
L 585.05974 254.276532 
L 595.366234 251.990988 
L 605.672727 249.735719 
L 615.979221 247.510325 
L 626.285714 245.314409 
L 636.592208 243.147582 
L 646.898701 241.009457 
L 657.205195 238.899656 
L 667.511688 236.817801 
L 677.818182 234.763524 
L 688.124675 232.736459 
L 698.431169 230.736246 
L 708.737662 228.762528 
L 719.044156 226.814956 
L 729.350649 224.893182 
L 739.657143 222.996864 
L 749.963636 221.125667 
L 760.27013 219.279256 
L 770.576623 217.457303 
L 780.883117 215.659485 
L 791.18961 213.885482 
L 801.496104 212.134979 
L 811.802597 210.407663 
L 822.109091 208.703228 
L 832.415584 207.021371 
L 842.722078 205.361793 
L 853.028571 203.724199 
L 863.335065 202.108297 
L 873.641558 200.5138 
L 883.948052 198.940424 
L 894.254545 197.38789 
L 904.561039 195.855922 
L 914.867532 194.344247 
L 925.174026 192.852597 
L 935.480519 191.380706 
L 945.787013 189.928312 
L 956.093506 188.495157 
L 966.4 187.080987 
L 976.706494 185.685549 
L 987.012987 184.308596 
L 997.319481 182.949883 
L 1007.625974 181.609168 
L 1017.932468 180.286213 
L 1028.238961 178.980783 
L 1038.545455 177.692644 
L 1048.851948 176.42157 
L 1059.158442 175.167332 
L 1069.464935 173.929709 
L 1079.771429 172.70848 
L 1090.077922 171.503428 
L 1100.384416 170.314339 
L 1110.690909 169.141001 
L 1120.997403 167.983206 
L 1131.303896 166.840747 
L 1141.61039 165.713422 
L 1151.916883 164.60103 
L 1162.223377 163.503374 
L 1172.52987 162.420257 
L 1182.836364 161.351488 
L 1193.142857 160.296877 
" clip-path="url(#p5f32e2e299)" style="fill: none; stroke: #9467bd; stroke-width: 1.5; stroke-linecap: square"/>
   </g>
   <g id="line2d_28">
    <path d="M 172.8 375.868692 
L 183.106494 371.972047 
L 193.412987 368.127793 
L 203.719481 364.334498 
L 214.025974 360.590806 
L 224.332468 356.895434 
L 234.638961 353.247163 
L 244.945455 349.644831 
L 255.251948 346.087335 
L 265.558442 342.57362 
L 275.864935 339.102678 
L 286.171429 335.673544 
L 296.477922 332.285294 
L 306.784416 328.937042 
L 317.090909 325.627936 
L 327.397403 322.357156 
L 337.703896 319.123913 
L 348.01039 315.927449 
L 358.316883 312.767028 
L 368.623377 309.641945 
L 378.92987 306.551514 
L 389.236364 303.495074 
L 399.542857 300.471985 
L 409.849351 297.481627 
L 420.155844 294.523398 
L 430.462338 291.596716 
L 440.768831 288.701014 
L 451.075325 285.835743 
L 461.381818 283.000369 
L 471.688312 280.194372 
L 481.994805 277.417247 
L 492.301299 274.668503 
L 502.607792 271.94766 
L 512.914286 269.254253 
L 523.220779 266.587827 
L 533.527273 263.947937 
L 543.833766 261.334152 
L 554.14026 258.74605 
L 564.446753 256.183219 
L 574.753247 253.645255 
L 585.05974 251.131767 
L 595.366234 248.64237 
L 605.672727 246.176688 
L 615.979221 243.734354 
L 626.285714 241.315009 
L 636.592208 238.918301 
L 646.898701 236.543886 
L 657.205195 234.191428 
L 667.511688 231.860597 
L 677.818182 229.55107 
L 688.124675 227.26253 
L 698.431169 224.994667 
L 708.737662 222.747178 
L 719.044156 220.519764 
L 729.350649 218.312134 
L 739.657143 216.124 
L 749.963636 213.955083 
L 760.27013 211.805106 
L 770.576623 209.673799 
L 780.883117 207.560897 
L 791.18961 205.466138 
L 801.496104 203.389268 
L 811.802597 201.330035 
L 822.109091 199.288192 
L 832.415584 197.263498 
L 842.722078 195.255714 
L 853.028571 193.264607 
L 863.335065 191.289947 
L 873.641558 189.331509 
L 883.948052 187.38907 
L 894.254545 185.462414 
L 904.561039 183.551325 
L 914.867532 181.655594 
L 925.174026 179.775012 
L 935.480519 177.909377 
L 945.787013 176.058489 
L 956.093506 174.22215 
L 966.4 172.400167 
L 976.706494 170.592349 
L 987.012987 168.798509 
L 997.319481 167.018463 
L 1007.625974 165.252029 
L 1017.932468 163.499029 
L 1028.238961 161.759287 
L 1038.545455 160.032631 
L 1048.851948 158.318889 
L 1059.158442 156.617896 
L 1069.464935 154.929485 
L 1079.771429 153.253495 
L 1090.077922 151.589766 
L 1100.384416 149.93814 
L 1110.690909 148.298464 
L 1120.997403 146.670583 
L 1131.303896 145.054349 
L 1141.61039 143.449614 
L 1151.916883 141.856231 
L 1162.223377 140.274057 
L 1172.52987 138.702952 
L 1182.836364 137.142775 
L 1193.142857 135.59339 
" clip-path="url(#p5f32e2e299)" style="fill: none; stroke: #8c564b; stroke-width: 1.5; stroke-linecap: square"/>
   </g>
   <g id="patch_3">
    <path d="M 172.8 629.9064 
L 172.8 84.9312 
" style="fill: none; stroke: #000000; stroke-width: 0.8; stroke-linejoin: miter; stroke-linecap: square"/>
   </g>
   <g id="patch_4">
    <path d="M 1244.16 629.9064 
L 1244.16 84.9312 
" style="fill: none; stroke: #000000; stroke-width: 0.8; stroke-linejoin: miter; stroke-linecap: square"/>
   </g>
   <g id="patch_5">
    <path d="M 172.8 629.9064 
L 1244.16 629.9064 
" style="fill: none; stroke: #000000; stroke-width: 0.8; stroke-linejoin: miter; stroke-linecap: square"/>
   </g>
   <g id="patch_6">
    <path d="M 172.8 84.9312 
L 1244.16 84.9312 
" style="fill: none; stroke: #000000; stroke-width: 0.8; stroke-linejoin: miter; stroke-linecap: square"/>
   </g>
   <g id="legend_1">
    <g id="patch_7">
     <path d="M 179.8 180.99995 
L 298.675 180.99995 
Q 300.675 180.99995 300.675 178.99995 
L 300.675 91.9312 
Q 300.675 89.9312 298.675 89.9312 
L 179.8 89.9312 
Q 177.8 89.9312 177.8 91.9312 
L 177.8 178.99995 
Q 177.8 180.99995 179.8 180.99995 
z
" style="fill: #ffffff; opacity: 0.8; stroke: #cccccc; stroke-linejoin: miter"/>
    </g>
    <g id="line2d_29">
     <path d="M 181.8 98.029638 
L 191.8 98.029638 
L 201.8 98.029638 
" style="fill: none; stroke: #1f77b4; stroke-width: 1.5; stroke-linecap: square"/>
    </g>
    <g id="text_12">
     <!-- eng. stress-strain -->
     <g transform="translate(209.8 101.529638) scale(0.1 -0.1)">
      <defs>
       <path id="DejaVuSans-65" d="M 3597 1894 
L 3597 1613 
L 953 1613 
Q 991 1019 1311 708 
Q 1631 397 2203 397 
Q 2534 397 2845 478 
Q 3156 559 3463 722 
L 3463 178 
Q 3153 47 2828 -22 
Q 2503 -91 2169 -91 
Q 1331 -91 842 396 
Q 353 884 353 1716 
Q 353 2575 817 3079 
Q 1281 3584 2069 3584 
Q 2775 3584 3186 3129 
Q 3597 2675 3597 1894 
z
M 3022 2063 
Q 3016 2534 2758 2815 
Q 2500 3097 2075 3097 
Q 1594 3097 1305 2825 
Q 1016 2553 972 2059 
L 3022 2063 
z
" transform="scale(0.015625)"/>
       <path id="DejaVuSans-6e" d="M 3513 2113 
L 3513 0 
L 2938 0 
L 2938 2094 
Q 2938 2591 2744 2837 
Q 2550 3084 2163 3084 
Q 1697 3084 1428 2787 
Q 1159 2491 1159 1978 
L 1159 0 
L 581 0 
L 581 3500 
L 1159 3500 
L 1159 2956 
Q 1366 3272 1645 3428 
Q 1925 3584 2291 3584 
Q 2894 3584 3203 3211 
Q 3513 2838 3513 2113 
z
" transform="scale(0.015625)"/>
       <path id="DejaVuSans-67" d="M 2906 1791 
Q 2906 2416 2648 2759 
Q 2391 3103 1925 3103 
Q 1463 3103 1205 2759 
Q 947 2416 947 1791 
Q 947 1169 1205 825 
Q 1463 481 1925 481 
Q 2391 481 2648 825 
Q 2906 1169 2906 1791 
z
M 3481 434 
Q 3481 -459 3084 -895 
Q 2688 -1331 1869 -1331 
Q 1566 -1331 1297 -1286 
Q 1028 -1241 775 -1147 
L 775 -588 
Q 1028 -725 1275 -790 
Q 1522 -856 1778 -856 
Q 2344 -856 2625 -561 
Q 2906 -266 2906 331 
L 2906 616 
Q 2728 306 2450 153 
Q 2172 0 1784 0 
Q 1141 0 747 490 
Q 353 981 353 1791 
Q 353 2603 747 3093 
Q 1141 3584 1784 3584 
Q 2172 3584 2450 3431 
Q 2728 3278 2906 2969 
L 2906 3500 
L 3481 3500 
L 3481 434 
z
" transform="scale(0.015625)"/>
       <path id="DejaVuSans-20" transform="scale(0.015625)"/>
       <path id="DejaVuSans-73" d="M 2834 3397 
L 2834 2853 
Q 2591 2978 2328 3040 
Q 2066 3103 1784 3103 
Q 1356 3103 1142 2972 
Q 928 2841 928 2578 
Q 928 2378 1081 2264 
Q 1234 2150 1697 2047 
L 1894 2003 
Q 2506 1872 2764 1633 
Q 3022 1394 3022 966 
Q 3022 478 2636 193 
Q 2250 -91 1575 -91 
Q 1294 -91 989 -36 
Q 684 19 347 128 
L 347 722 
Q 666 556 975 473 
Q 1284 391 1588 391 
Q 1994 391 2212 530 
Q 2431 669 2431 922 
Q 2431 1156 2273 1281 
Q 2116 1406 1581 1522 
L 1381 1569 
Q 847 1681 609 1914 
Q 372 2147 372 2553 
Q 372 3047 722 3315 
Q 1072 3584 1716 3584 
Q 2034 3584 2315 3537 
Q 2597 3491 2834 3397 
z
" transform="scale(0.015625)"/>
       <path id="DejaVuSans-74" d="M 1172 4494 
L 1172 3500 
L 2356 3500 
L 2356 3053 
L 1172 3053 
L 1172 1153 
Q 1172 725 1289 603 
Q 1406 481 1766 481 
L 2356 481 
L 2356 0 
L 1766 0 
Q 1100 0 847 248 
Q 594 497 594 1153 
L 594 3053 
L 172 3053 
L 172 3500 
L 594 3500 
L 594 4494 
L 1172 4494 
z
" transform="scale(0.015625)"/>
       <path id="DejaVuSans-72" d="M 2631 2963 
Q 2534 3019 2420 3045 
Q 2306 3072 2169 3072 
Q 1681 3072 1420 2755 
Q 1159 2438 1159 1844 
L 1159 0 
L 581 0 
L 581 3500 
L 1159 3500 
L 1159 2956 
Q 1341 3275 1631 3429 
Q 1922 3584 2338 3584 
Q 2397 3584 2469 3576 
Q 2541 3569 2628 3553 
L 2631 2963 
z
" transform="scale(0.015625)"/>
       <path id="DejaVuSans-2d" d="M 313 2009 
L 1997 2009 
L 1997 1497 
L 313 1497 
L 313 2009 
z
" transform="scale(0.015625)"/>
       <path id="DejaVuSans-61" d="M 2194 1759 
Q 1497 1759 1228 1600 
Q 959 1441 959 1056 
Q 959 750 1161 570 
Q 1363 391 1709 391 
Q 2188 391 2477 730 
Q 2766 1069 2766 1631 
L 2766 1759 
L 2194 1759 
z
M 3341 1997 
L 3341 0 
L 2766 0 
L 2766 531 
Q 2569 213 2275 61 
Q 1981 -91 1556 -91 
Q 1019 -91 701 211 
Q 384 513 384 1019 
Q 384 1609 779 1909 
Q 1175 2209 1959 2209 
L 2766 2209 
L 2766 2266 
Q 2766 2663 2505 2880 
Q 2244 3097 1772 3097 
Q 1472 3097 1187 3025 
Q 903 2953 641 2809 
L 641 3341 
Q 956 3463 1253 3523 
Q 1550 3584 1831 3584 
Q 2591 3584 2966 3190 
Q 3341 2797 3341 1997 
z
" transform="scale(0.015625)"/>
       <path id="DejaVuSans-69" d="M 603 3500 
L 1178 3500 
L 1178 0 
L 603 0 
L 603 3500 
z
M 603 4863 
L 1178 4863 
L 1178 4134 
L 603 4134 
L 603 4863 
z
" transform="scale(0.015625)"/>
      </defs>
      <use xlink:href="#DejaVuSans-65"/>
      <use xlink:href="#DejaVuSans-6e" x="61.523438"/>
      <use xlink:href="#DejaVuSans-67" x="124.902344"/>
      <use xlink:href="#DejaVuSans-2e" x="188.378906"/>
      <use xlink:href="#DejaVuSans-20" x="220.166016"/>
      <use xlink:href="#DejaVuSans-73" x="251.953125"/>
      <use xlink:href="#DejaVuSans-74" x="304.052734"/>
      <use xlink:href="#DejaVuSans-72" x="343.261719"/>
      <use xlink:href="#DejaVuSans-65" x="382.125"/>
      <use xlink:href="#DejaVuSans-73" x="443.648438"/>
      <use xlink:href="#DejaVuSans-73" x="495.748047"/>
      <use xlink:href="#DejaVuSans-2d" x="547.847656"/>
      <use xlink:href="#DejaVuSans-73" x="583.931641"/>
      <use xlink:href="#DejaVuSans-74" x="636.03125"/>
      <use xlink:href="#DejaVuSans-72" x="675.240234"/>
      <use xlink:href="#DejaVuSans-61" x="716.353516"/>
      <use xlink:href="#DejaVuSans-69" x="777.632812"/>
      <use xlink:href="#DejaVuSans-6e" x="805.416016"/>
     </g>
    </g>
    <g id="line2d_30">
     <path d="M 181.8 112.707763 
L 191.8 112.707763 
L 201.8 112.707763 
" style="fill: none; stroke: #ff7f0e; stroke-width: 1.5; stroke-linecap: square"/>
    </g>
    <g id="text_13">
     <!-- true stress-strain -->
     <g transform="translate(209.8 116.207763) scale(0.1 -0.1)">
      <defs>
       <path id="DejaVuSans-75" d="M 544 1381 
L 544 3500 
L 1119 3500 
L 1119 1403 
Q 1119 906 1312 657 
Q 1506 409 1894 409 
Q 2359 409 2629 706 
Q 2900 1003 2900 1516 
L 2900 3500 
L 3475 3500 
L 3475 0 
L 2900 0 
L 2900 538 
Q 2691 219 2414 64 
Q 2138 -91 1772 -91 
Q 1169 -91 856 284 
Q 544 659 544 1381 
z
M 1991 3584 
L 1991 3584 
z
" transform="scale(0.015625)"/>
      </defs>
      <use xlink:href="#DejaVuSans-74"/>
      <use xlink:href="#DejaVuSans-72" x="39.208984"/>
      <use xlink:href="#DejaVuSans-75" x="80.322266"/>
      <use xlink:href="#DejaVuSans-65" x="143.701172"/>
      <use xlink:href="#DejaVuSans-20" x="205.224609"/>
      <use xlink:href="#DejaVuSans-73" x="237.011719"/>
      <use xlink:href="#DejaVuSans-74" x="289.111328"/>
      <use xlink:href="#DejaVuSans-72" x="328.320312"/>
      <use xlink:href="#DejaVuSans-65" x="367.183594"/>
      <use xlink:href="#DejaVuSans-73" x="428.707031"/>
      <use xlink:href="#DejaVuSans-73" x="480.806641"/>
      <use xlink:href="#DejaVuSans-2d" x="532.90625"/>
      <use xlink:href="#DejaVuSans-73" x="568.990234"/>
      <use xlink:href="#DejaVuSans-74" x="621.089844"/>
      <use xlink:href="#DejaVuSans-72" x="660.298828"/>
      <use xlink:href="#DejaVuSans-61" x="701.412109"/>
      <use xlink:href="#DejaVuSans-69" x="762.691406"/>
      <use xlink:href="#DejaVuSans-6e" x="790.474609"/>
     </g>
    </g>
    <g id="line2d_31">
     <path d="M 181.8 127.385888 
L 191.8 127.385888 
L 201.8 127.385888 
" style="fill: none; stroke: #2ca02c; stroke-width: 1.5; stroke-linecap: square"/>
    </g>
    <g id="text_14">
     <!-- plst. stress-strain -->
     <g transform="translate(209.8 130.885888) scale(0.1 -0.1)">
      <defs>
       <path id="DejaVuSans-70" d="M 1159 525 
L 1159 -1331 
L 581 -1331 
L 581 3500 
L 1159 3500 
L 1159 2969 
Q 1341 3281 1617 3432 
Q 1894 3584 2278 3584 
Q 2916 3584 3314 3078 
Q 3713 2572 3713 1747 
Q 3713 922 3314 415 
Q 2916 -91 2278 -91 
Q 1894 -91 1617 61 
Q 1341 213 1159 525 
z
M 3116 1747 
Q 3116 2381 2855 2742 
Q 2594 3103 2138 3103 
Q 1681 3103 1420 2742 
Q 1159 2381 1159 1747 
Q 1159 1113 1420 752 
Q 1681 391 2138 391 
Q 2594 391 2855 752 
Q 3116 1113 3116 1747 
z
" transform="scale(0.015625)"/>
       <path id="DejaVuSans-6c" d="M 603 4863 
L 1178 4863 
L 1178 0 
L 603 0 
L 603 4863 
z
" transform="scale(0.015625)"/>
      </defs>
      <use xlink:href="#DejaVuSans-70"/>
      <use xlink:href="#DejaVuSans-6c" x="63.476562"/>
      <use xlink:href="#DejaVuSans-73" x="91.259766"/>
      <use xlink:href="#DejaVuSans-74" x="143.359375"/>
      <use xlink:href="#DejaVuSans-2e" x="182.568359"/>
      <use xlink:href="#DejaVuSans-20" x="214.355469"/>
      <use xlink:href="#DejaVuSans-73" x="246.142578"/>
      <use xlink:href="#DejaVuSans-74" x="298.242188"/>
      <use xlink:href="#DejaVuSans-72" x="337.451172"/>
      <use xlink:href="#DejaVuSans-65" x="376.314453"/>
      <use xlink:href="#DejaVuSans-73" x="437.837891"/>
      <use xlink:href="#DejaVuSans-73" x="489.9375"/>
      <use xlink:href="#DejaVuSans-2d" x="542.037109"/>
      <use xlink:href="#DejaVuSans-73" x="578.121094"/>
      <use xlink:href="#DejaVuSans-74" x="630.220703"/>
      <use xlink:href="#DejaVuSans-72" x="669.429688"/>
      <use xlink:href="#DejaVuSans-61" x="710.542969"/>
      <use xlink:href="#DejaVuSans-69" x="771.822266"/>
      <use xlink:href="#DejaVuSans-6e" x="799.605469"/>
     </g>
    </g>
    <g id="line2d_32">
     <path d="M 181.8 142.064012 
L 191.8 142.064012 
L 201.8 142.064012 
" style="fill: none; stroke: #d62728; stroke-width: 1.5; stroke-linecap: square"/>
    </g>
    <g id="text_15">
     <!-- Swift -->
     <g transform="translate(209.8 145.564012) scale(0.1 -0.1)">
      <defs>
       <path id="DejaVuSans-53" d="M 3425 4513 
L 3425 3897 
Q 3066 4069 2747 4153 
Q 2428 4238 2131 4238 
Q 1616 4238 1336 4038 
Q 1056 3838 1056 3469 
Q 1056 3159 1242 3001 
Q 1428 2844 1947 2747 
L 2328 2669 
Q 3034 2534 3370 2195 
Q 3706 1856 3706 1288 
Q 3706 609 3251 259 
Q 2797 -91 1919 -91 
Q 1588 -91 1214 -16 
Q 841 59 441 206 
L 441 856 
Q 825 641 1194 531 
Q 1563 422 1919 422 
Q 2459 422 2753 634 
Q 3047 847 3047 1241 
Q 3047 1584 2836 1778 
Q 2625 1972 2144 2069 
L 1759 2144 
Q 1053 2284 737 2584 
Q 422 2884 422 3419 
Q 422 4038 858 4394 
Q 1294 4750 2059 4750 
Q 2388 4750 2728 4690 
Q 3069 4631 3425 4513 
z
" transform="scale(0.015625)"/>
       <path id="DejaVuSans-77" d="M 269 3500 
L 844 3500 
L 1563 769 
L 2278 3500 
L 2956 3500 
L 3675 769 
L 4391 3500 
L 4966 3500 
L 4050 0 
L 3372 0 
L 2619 2869 
L 1863 0 
L 1184 0 
L 269 3500 
z
" transform="scale(0.015625)"/>
       <path id="DejaVuSans-66" d="M 2375 4863 
L 2375 4384 
L 1825 4384 
Q 1516 4384 1395 4259 
Q 1275 4134 1275 3809 
L 1275 3500 
L 2222 3500 
L 2222 3053 
L 1275 3053 
L 1275 0 
L 697 0 
L 697 3053 
L 147 3053 
L 147 3500 
L 697 3500 
L 697 3744 
Q 697 4328 969 4595 
Q 1241 4863 1831 4863 
L 2375 4863 
z
" transform="scale(0.015625)"/>
      </defs>
      <use xlink:href="#DejaVuSans-53"/>
      <use xlink:href="#DejaVuSans-77" x="63.476562"/>
      <use xlink:href="#DejaVuSans-69" x="145.263672"/>
      <use xlink:href="#DejaVuSans-66" x="173.046875"/>
      <use xlink:href="#DejaVuSans-74" x="206.501953"/>
     </g>
    </g>
    <g id="line2d_33">
     <path d="M 181.8 156.742138 
L 191.8 156.742138 
L 201.8 156.742138 
" style="fill: none; stroke: #9467bd; stroke-width: 1.5; stroke-linecap: square"/>
    </g>
    <g id="text_16">
     <!-- Voce -->
     <g transform="translate(209.8 160.242138) scale(0.1 -0.1)">
      <defs>
       <path id="DejaVuSans-56" d="M 1831 0 
L 50 4666 
L 709 4666 
L 2188 738 
L 3669 4666 
L 4325 4666 
L 2547 0 
L 1831 0 
z
" transform="scale(0.015625)"/>
       <path id="DejaVuSans-6f" d="M 1959 3097 
Q 1497 3097 1228 2736 
Q 959 2375 959 1747 
Q 959 1119 1226 758 
Q 1494 397 1959 397 
Q 2419 397 2687 759 
Q 2956 1122 2956 1747 
Q 2956 2369 2687 2733 
Q 2419 3097 1959 3097 
z
M 1959 3584 
Q 2709 3584 3137 3096 
Q 3566 2609 3566 1747 
Q 3566 888 3137 398 
Q 2709 -91 1959 -91 
Q 1206 -91 779 398 
Q 353 888 353 1747 
Q 353 2609 779 3096 
Q 1206 3584 1959 3584 
z
" transform="scale(0.015625)"/>
       <path id="DejaVuSans-63" d="M 3122 3366 
L 3122 2828 
Q 2878 2963 2633 3030 
Q 2388 3097 2138 3097 
Q 1578 3097 1268 2742 
Q 959 2388 959 1747 
Q 959 1106 1268 751 
Q 1578 397 2138 397 
Q 2388 397 2633 464 
Q 2878 531 3122 666 
L 3122 134 
Q 2881 22 2623 -34 
Q 2366 -91 2075 -91 
Q 1284 -91 818 406 
Q 353 903 353 1747 
Q 353 2603 823 3093 
Q 1294 3584 2113 3584 
Q 2378 3584 2631 3529 
Q 2884 3475 3122 3366 
z
" transform="scale(0.015625)"/>
      </defs>
      <use xlink:href="#DejaVuSans-56"/>
      <use xlink:href="#DejaVuSans-6f" x="60.658203"/>
      <use xlink:href="#DejaVuSans-63" x="121.839844"/>
      <use xlink:href="#DejaVuSans-65" x="176.820312"/>
     </g>
    </g>
    <g id="line2d_34">
     <path d="M 181.8 171.420263 
L 191.8 171.420263 
L 201.8 171.420263 
" style="fill: none; stroke: #8c564b; stroke-width: 1.5; stroke-linecap: square"/>
    </g>
    <g id="text_17">
     <!-- Swift-Voce -->
     <g transform="translate(209.8 174.920263) scale(0.1 -0.1)">
      <use xlink:href="#DejaVuSans-53"/>
      <use xlink:href="#DejaVuSans-77" x="63.476562"/>
      <use xlink:href="#DejaVuSans-69" x="145.263672"/>
      <use xlink:href="#DejaVuSans-66" x="173.046875"/>
      <use xlink:href="#DejaVuSans-74" x="206.501953"/>
      <use xlink:href="#DejaVuSans-2d" x="245.710938"/>
      <use xlink:href="#DejaVuSans-56" x="275.919922"/>
      <use xlink:href="#DejaVuSans-6f" x="336.578125"/>
      <use xlink:href="#DejaVuSans-63" x="397.759766"/>
      <use xlink:href="#DejaVuSans-65" x="452.740234"/>
     </g>
    </g>
   </g>
  </g>
 </g>
 <defs>
  <clipPath id="p5f32e2e299">
   <rect x="172.8" y="84.9312" width="1071.36" height="544.9752"/>
  </clipPath>
 </defs>
</svg>
